<?xml version="1.0" standalone="no"?>
<!DOCTYPE svg PUBLIC "-//W3C//DTD SVG 20010904//EN"
 "http://www.w3.org/TR/2001/REC-SVG-20010904/DTD/svg10.dtd">
<svg version="1.0" xmlns="http://www.w3.org/2000/svg"
 width="71.000000pt" height="71.000000pt" viewBox="0 0 71.000000 71.000000"
 preserveAspectRatio="xMidYMid meet">
<metadata>
Created by potrace 1.14, written by Peter Selinger 2001-2017
</metadata>
<g transform="translate(0.000000,71.000000) scale(0.100000,-0.100000)"
fill="#000000" stroke="none">
<path d="M631 672 c-6 -9 -11 -14 -11 -10 0 6 -160 -151 -160 -157 0 -7 -84
-85 -91 -85 -5 0 -9 -4 -9 -10 0 -13 -41 -50 -57 -50 -8 0 -66 53 -130 118
-111 111 -139 131 -155 107 -4 -5 -8 -129 -8 -275 1 -205 4 -269 14 -283 12
-16 40 -17 323 -17 l310 0 11 23 c7 14 10 118 10 302 0 154 1 285 3 290 5 17
-11 53 -26 59 -8 3 -19 -3 -24 -12z"/>
</g>
</svg>
